<svg width="512" height="512" viewBox="0 0 512 512" fill="none" xmlns="http://www.w3.org/2000/svg">
    <path d="M404.939 62.6749C437.106 62.6749 450.981 93.5823 449.089 110.613C448.458 121.335 438.998 229.823 438.998 229.823H278.167L284.474 152.872H244.108L226.449 358.497H266.814L273.752 275.869H434.583C434.583 275.869 425.753 383.097 423.861 400.758C420.707 430.403 406.832 449.325 372.143 449.325C353.853 449.325 119.859 449.325 106.614 449.325C76.9712 449.325 60.5729 421.572 62.4651 397.603C63.7265 382.465 85.8012 119.443 87.0627 106.828C88.9548 85.3827 104.722 62.6749 136.888 62.6749C154.548 62.6749 394.848 62.6749 404.939 62.6749ZM404.939 16H137.52C109.768 16 85.801 25.4614 68.1412 43.7532C53.0042 58.8912 43.5435 79.7055 41.0207 102.412C40.39 108.72 17.0538 385.618 16.4231 393.187C13.9003 419.679 22.7302 447.433 41.0207 466.986C58.0498 485.909 81.3861 496 106.614 496H372.143C427.646 496 464.857 461.939 470.534 405.172C472.426 387.511 494.5 125.12 495.762 114.397C497.654 90.4284 488.194 63.3051 470.534 44.3826C453.505 26.0908 430.168 16 404.939 16Z" fill="#43CD72"/>
</svg>
